<svg xmlns="http://www.w3.org/2000/svg" width="18" height="18" fill="none" viewBox="0 0 18 18">
    <path fill="#EA6938" d="M0 6.75l8.667 5.516c.099.073.216.109.333.109.117 0 .234-.036.333-.11L18 6.75 9.338.112c-.2-.15-.475-.15-.675 0L0 6.75z"/>
    <path fill="#E5E5E5" d="M14.625 0H3.375C2.755 0 2.25.505 2.25 1.125V13.5c0 .31.252.563.563.563h12.374c.311 0 .563-.253.563-.563V1.125C15.75.505 15.246 0 14.625 0z"/>
    <path fill="#5A81EA" fill-rule="evenodd" d="M9 7l5 5H4l5-5z" clip-rule="evenodd"/>
    <path fill="#E14B51" fill-rule="evenodd" d="M9 7l5-5H4l5 5z" clip-rule="evenodd"/>
    <path fill="#FFA654" d="M9.333 12.266c-.099.073-.216.109-.333.109-.117 0-.234-.036-.333-.11L0 6.75v10.125C0 17.496.504 18 1.125 18h15.75c.621 0 1.125-.504 1.125-1.125V6.75l-8.667 5.516z"/>
    <path fill="#FFC650" d="M16.875 18H1.125C.494 18 0 17.506 0 16.875c0-.179.086-.348.23-.453l8.437-5.625c.099-.074.216-.11.333-.11.117 0 .234.037.333.11l8.437 5.625c.145.105.23.274.23.453 0 .631-.494 1.125-1.125 1.125z"/>
</svg>
