<svg xmlns="http://www.w3.org/2000/svg" width="18" height="18" fill="none" viewBox="0 0 18 18">
    <path fill="#F4F1F1" d="M18 4.915v12.558c0 .29-.236.527-.527.527H2.63c-.291 0-.528-.236-.528-.527V.527c0-.29.237-.527.528-.527h10.39c.139 0 .272.054.37.152l4.452 4.387c.1.1.157.235.157.376z"/>
    <path fill="#ECEAE7" d="M17.844 4.54L13.393.151C13.294.054 13.16 0 13.023 0h-2.97v18h7.42c.292 0 .528-.236.528-.527V4.915c0-.141-.057-.276-.157-.376z"/>
    <path fill="#5A81EA" fill-rule="evenodd" d="M10 9l5 5H5l5-5z" clip-rule="evenodd"/>
    <path fill="#E14B51" fill-rule="evenodd" d="M10 9l5-5H5l5 5z" clip-rule="evenodd"/>
    <path fill="#C5B9B7" d="M18 4.915v.528h-3.925c-.872 0-1.581-.71-1.581-1.582V0h.527c.138 0 .271.054.37.152l4.451 4.387c.1.1.158.235.158.376z"/>
    <path fill="#686868" d="M8 11.005v3.992c0 1.106-.9 2.005-2.005 2.005h-3.99C.9 17.002 0 16.102 0 14.997v-3.992C0 9.9.9 9 2.005 9h3.99C7.1 9 8 9.9 8 11.005z"/>
    <path fill="#fff" d="M3.036 14.806c-.098 0-.195-.037-.27-.111L1.342 13.27c-.148-.149-.148-.39 0-.538l1.426-1.425c.148-.149.389-.149.537 0 .149.148.149.389 0 .537l-1.156 1.157 1.156 1.156c.149.149.149.39 0 .538-.074.074-.171.111-.268.111zM4.96 14.806c-.097 0-.194-.037-.269-.111-.148-.149-.148-.39 0-.538l1.157-1.156-1.157-1.157c-.148-.148-.148-.389 0-.537.149-.149.39-.149.538 0l1.425 1.425c.149.149.149.39 0 .538L5.23 14.695c-.074.074-.171.111-.269.111z"/>
</svg>
